<svg width="32" height="32" viewBox="0 0 32 32" fill="none" xmlns="http://www.w3.org/2000/svg">
<path d="M22.4267 2.66667H9.57333C6.73333 2.66667 4.42667 4.98667 4.42667 7.81334V26.6C4.42667 29 6.14667 30.0133 8.25333 28.8533L14.76 25.24C15.4533 24.8533 16.5733 24.8533 17.2533 25.24L23.76 28.8533C25.8667 30.0267 27.5867 29.0133 27.5867 26.6V7.81334C27.5733 4.98667 25.2667 2.66667 22.4267 2.66667ZM20.0133 13C18.72 13.4667 17.36 13.7067 16 13.7067C14.64 13.7067 13.28 13.4667 11.9867 13C11.7374 12.9097 11.5342 12.7242 11.4217 12.4842C11.3092 12.2442 11.2966 11.9693 11.3867 11.72C11.5867 11.2 12.16 10.9333 12.68 11.12C14.8267 11.8933 17.1867 11.8933 19.3333 11.12C19.4577 11.071 19.5907 11.0474 19.7243 11.0507C19.858 11.0539 19.9897 11.084 20.1115 11.139C20.2334 11.194 20.3429 11.273 20.4338 11.3711C20.5246 11.4692 20.5948 11.5845 20.6403 11.7102C20.6858 11.836 20.7056 11.9696 20.6985 12.1031C20.6915 12.2366 20.6578 12.3673 20.5993 12.4876C20.5408 12.6078 20.4589 12.7151 20.3582 12.8031C20.2576 12.8912 20.1403 12.9581 20.0133 13Z" fill="#F7F7F7"/>
</svg>
