<svg width="32" height="32" viewBox="0 0 32 32" fill="none" xmlns="http://www.w3.org/2000/svg">
<path d="M29 10.664C29 11.2107 28.5467 11.664 28 11.664H3.99999C3.45332 11.664 2.99999 11.2107 2.99999 10.664C2.99999 10.1173 3.45332 9.66399 3.99999 9.66399H5.35999L5.86666 7.25066C6.34666 4.91733 7.34666 2.77066 11.32 2.77066H20.68C24.6533 2.77066 25.6533 4.91733 26.1333 7.25066L26.64 9.66399H28C28.5467 9.66399 29 10.1173 29 10.664ZM29.576 18.2133C29.376 16.0133 28.7893 13.6667 24.5093 13.6667H7.49466C3.21466 13.6667 2.64132 16.0133 2.42799 18.2133L1.68132 26.3333C1.58799 27.3467 1.92132 28.36 2.61466 29.12C3.32132 29.8933 4.32132 30.3333 5.38799 30.3333H7.89466C10.0547 30.3333 10.468 29.0933 10.7347 28.28L11.0013 27.48C11.308 26.56 11.388 26.3333 12.588 26.3333H19.4147C20.6147 26.3333 20.6547 26.4667 21.0013 27.48L21.268 28.28C21.5347 29.0933 21.948 30.3333 24.108 30.3333H26.6147C27.668 30.3333 28.6813 29.8933 29.388 29.12C30.0813 28.36 30.4147 27.3467 30.3213 26.3333L29.5747 18.2133H29.576ZM12.0027 21H8.00266C7.45599 21 7.00266 20.5467 7.00266 20C7.00266 19.4533 7.45599 19 8.00266 19H12.0027C12.5493 19 13.0027 19.4533 13.0027 20C13.0027 20.5467 12.5493 21 12.0027 21ZM24.0027 21H20.0027C19.456 21 19.0027 20.5467 19.0027 20C19.0027 19.4533 19.456 19 20.0027 19H24.0027C24.5493 19 25.0027 19.4533 25.0027 20C25.0027 20.5467 24.5493 21 24.0027 21Z" fill="#F7F7F7"/>
</svg>
