<svg width="89" height="98" viewBox="0 0 89 98" fill="none" xmlns="http://www.w3.org/2000/svg">
<path d="M88.2003 24.4998C88.2 23.2004 87.6836 21.9543 86.7646 21.0356L67.1647 1.43569C66.2454 0.517615 64.9997 0.00135137 63.7004 0L17.1507 0C15.2014 0 13.3319 0.774368 11.9535 2.15275C10.5751 3.53113 9.80078 5.40062 9.80078 7.34995V29.3998C9.80078 30.6994 10.317 31.9457 11.2359 32.8646C12.1549 33.7835 13.4012 34.2998 14.7007 34.2998C16.0003 34.2998 17.2466 33.7835 18.1655 32.8646C19.0845 31.9457 19.6007 30.6994 19.6007 29.3998V9.79994H61.6718L78.4003 26.5284V88.1994H19.6007V83.2995C19.6007 81.9999 19.0845 80.7536 18.1655 79.8347C17.2466 78.9157 16.0003 78.3995 14.7007 78.3995C13.4012 78.3995 12.1549 78.9157 11.2359 79.8347C10.317 80.7536 9.80078 81.9999 9.80078 83.2995V90.6494C9.80078 92.5987 10.5751 94.4682 11.9535 95.8466C13.3319 97.225 15.2014 97.9994 17.1507 97.9994H80.8503C82.7996 97.9994 84.6691 97.225 86.0475 95.8466C87.4259 94.4682 88.2003 92.5987 88.2003 90.6494V24.4998Z" fill="#F7F7F7"/>
<path d="M44.0992 29.3998C42.7996 29.3998 41.5533 29.9161 40.6344 30.835C39.7155 31.7539 39.1992 33.0002 39.1992 34.2998C39.1992 35.5993 39.7155 36.8457 40.6344 37.7646C41.5533 38.6835 42.7996 39.1997 44.0992 39.1997H58.7991V53.8996C58.7991 55.1992 59.3153 56.4455 60.2343 57.3644C61.1532 58.2834 62.3995 58.7996 63.6991 58.7996C64.9986 58.7996 66.2449 58.2834 67.1639 57.3644C68.0828 56.4455 68.599 55.1992 68.599 53.8996V34.2998C68.599 33.0002 68.0828 31.7539 67.1639 30.835C66.2449 29.9161 64.9986 29.3998 63.6991 29.3998H44.0992Z" fill="#F7F7F7"/>
<path d="M34.3029 63.6996L30.5398 66.8356C30.9756 67.3584 31.5156 67.7847 32.1253 68.0873C32.7351 68.3898 33.4011 68.5621 34.0811 68.5929C34.7611 68.6238 35.44 68.5127 36.0747 68.2667C36.7093 68.0206 37.2858 67.645 37.7672 67.1639L34.3029 63.6996ZM22.053 48.9997L25.8162 45.8637C25.3626 45.3203 24.7966 44.8816 24.1573 44.5778C23.5179 44.2741 22.8203 44.1124 22.1125 44.1041C21.4047 44.0957 20.7035 44.2407 20.0571 44.5293C19.4108 44.8178 18.8346 45.243 18.3682 45.7755L22.053 48.9997ZM1.21346 65.3705C0.357056 66.349 -0.0755405 67.6277 0.0108382 68.9253C0.0972169 70.2228 0.695495 71.4328 1.67406 72.2892C2.65262 73.1456 3.93131 73.5782 5.22883 73.4919C6.52635 73.4055 7.73641 72.8072 8.59281 71.8286L1.21346 65.3656V65.3705ZM55.3385 35.7355L30.8387 60.2353L37.7672 67.1639L62.2671 42.664L55.3385 35.7355ZM38.0661 60.5636L25.8162 45.8637L18.2898 52.1357L30.5398 66.8356L38.0661 60.5636ZM18.3682 45.7755L1.21836 65.3754L8.59281 71.8237L25.7427 52.2239L18.3633 45.7755H18.3682Z" fill="#F7F7F7"/>
</svg>
