<svg width="50" height="51" viewBox="0 0 50 51" fill="none" xmlns="http://www.w3.org/2000/svg">
<path d="M25 5.5C19.6957 5.5 14.6086 7.60714 10.8579 11.3579C7.10714 15.1086 5 20.1957 5 25.5C5 30.8043 7.10714 35.8914 10.8579 39.6421C14.6086 43.3929 19.6957 45.5 25 45.5C30.3043 45.5 35.3914 43.3929 39.1421 39.6421C42.8929 35.8914 45 30.8043 45 25.5C45 20.1957 42.8929 15.1086 39.1421 11.3579C35.3914 7.60714 30.3043 5.5 25 5.5ZM0 25.5C0 11.6925 11.1925 0.5 25 0.5C38.8075 0.5 50 11.6925 50 25.5C50 39.3075 38.8075 50.5 25 50.5C11.1925 50.5 0 39.3075 0 25.5ZM14.4825 14.9825C14.9513 14.5138 15.5871 14.2505 16.25 14.2505C16.9129 14.2505 17.5487 14.5138 18.0175 14.9825L25 21.965L31.9825 14.9825C32.2131 14.7437 32.489 14.5533 32.794 14.4222C33.099 14.2912 33.427 14.2223 33.759 14.2194C34.0909 14.2165 34.4201 14.2797 34.7274 14.4054C35.0346 14.5311 35.3138 14.7168 35.5485 14.9515C35.7832 15.1862 35.9689 15.4654 36.0946 15.7726C36.2203 16.0799 36.2835 16.4091 36.2806 16.741C36.2777 17.073 36.2088 17.401 36.0778 17.706C35.9467 18.011 35.7563 18.2869 35.5175 18.5175L28.535 25.5L35.5175 32.4825C35.9729 32.954 36.2249 33.5855 36.2192 34.241C36.2135 34.8965 35.9506 35.5235 35.487 35.987C35.0235 36.4506 34.3965 36.7135 33.741 36.7192C33.0855 36.7249 32.454 36.4729 31.9825 36.0175L25 29.035L18.0175 36.0175C17.546 36.4729 16.9145 36.7249 16.259 36.7192C15.6035 36.7135 14.9765 36.4506 14.513 35.987C14.0494 35.5235 13.7865 34.8965 13.7808 34.241C13.7751 33.5855 14.0271 32.954 14.4825 32.4825L21.465 25.5L14.4825 18.5175C14.0138 18.0487 13.7505 17.4129 13.7505 16.75C13.7505 16.0871 14.0138 15.4513 14.4825 14.9825Z" fill="#101B21"/>
</svg>
