<svg width="50" height="51" viewBox="0 0 50 51" fill="none" xmlns="http://www.w3.org/2000/svg">
<path d="M25 0.5C11.2 0.5 0 11.7 0 25.5C0 39.3 11.2 50.5 25 50.5C38.8 50.5 50 39.3 50 25.5C50 11.7 38.8 0.5 25 0.5ZM25 45.5C13.975 45.5 5 36.525 5 25.5C5 14.475 13.975 5.5 25 5.5C36.025 5.5 45 14.475 45 25.5C45 36.525 36.025 45.5 25 45.5ZM34.7 16.225L20 30.925L15.3 26.225C14.325 25.25 12.75 25.25 11.775 26.225C10.8 27.2 10.8 28.775 11.775 29.75L18.25 36.225C19.225 37.2 20.8 37.2 21.775 36.225L38.25 19.75C39.225 18.775 39.225 17.2 38.25 16.225C37.275 15.25 35.675 15.25 34.7 16.225Z" fill="#39CD51"/>
</svg>
