<svg width="89" height="102" viewBox="0 0 89 102" fill="none" xmlns="http://www.w3.org/2000/svg">
<path d="M62.2184 60.1588C56.5679 60.1588 53.8509 63.3089 44.5779 63.3089C35.3048 63.3089 32.6075 60.1588 26.9373 60.1588C12.3288 60.1588 0.476562 72.011 0.476562 86.6196V91.6597C0.476562 96.8771 4.7095 101.11 9.92684 101.11H79.2289C84.4462 101.11 88.6792 96.8771 88.6792 91.6597V86.6196C88.6792 72.011 76.8269 60.1588 62.2184 60.1588ZM79.2289 91.6597H9.92684V86.6196C9.92684 77.248 17.5658 69.6091 26.9373 69.6091C29.8118 69.6091 34.4779 72.7592 44.5779 72.7592C54.7566 72.7592 59.3242 69.6091 62.2184 69.6091C71.5899 69.6091 79.2289 77.248 79.2289 86.6196V91.6597ZM44.5779 57.0087C60.2299 57.0087 72.9287 44.3099 72.9287 28.6579C72.9287 13.0058 60.2299 0.307037 44.5779 0.307037C28.9258 0.307037 16.227 13.0058 16.227 28.6579C16.227 44.3099 28.9258 57.0087 44.5779 57.0087ZM44.5779 9.75731C54.9929 9.75731 63.4784 18.2429 63.4784 28.6579C63.4784 39.0729 54.9929 47.5584 44.5779 47.5584C34.1629 47.5584 25.6773 39.0729 25.6773 28.6579C25.6773 18.2429 34.1629 9.75731 44.5779 9.75731Z" fill="#F7F7F7"/>
</svg>
