<svg width="14" height="13" viewBox="0 0 14 13" fill="none" xmlns="http://www.w3.org/2000/svg">
<path d="M13.125 5.62555H2.7475L5.92375 1.81055C6.07227 1.63186 6.14373 1.40149 6.12239 1.17011C6.10106 0.93874 5.98869 0.725318 5.81 0.576796C5.63131 0.428275 5.40094 0.356821 5.16957 0.378153C4.93819 0.399486 4.72477 0.511857 4.57625 0.690547L0.20125 5.94055C0.171816 5.9823 0.145494 6.02617 0.1225 6.0718C0.1225 6.11555 0.1225 6.1418 0.0612502 6.18555C0.0215894 6.28587 0.000823481 6.39267 0 6.50055C0.000823481 6.60842 0.0215894 6.71522 0.0612502 6.81555C0.0612502 6.8593 0.0612499 6.88555 0.1225 6.9293C0.145494 6.97492 0.171816 7.01879 0.20125 7.06055L4.57625 12.3105C4.65852 12.4093 4.76154 12.4888 4.87799 12.5432C4.99444 12.5976 5.12145 12.6258 5.25 12.6255C5.45445 12.6259 5.65258 12.5547 5.81 12.4243C5.8986 12.3508 5.97184 12.2606 6.02552 12.1588C6.07921 12.057 6.11228 11.9456 6.12284 11.831C6.13341 11.7164 6.12126 11.6009 6.0871 11.491C6.05294 11.381 5.99743 11.279 5.92375 11.1905L2.7475 7.37555H13.125C13.3571 7.37555 13.5796 7.28336 13.7437 7.11926C13.9078 6.95517 14 6.73261 14 6.50055C14 6.26848 13.9078 6.04592 13.7437 5.88183C13.5796 5.71773 13.3571 5.62555 13.125 5.62555Z" fill="#F7F7F7"/>
</svg>
