<svg width="28" height="28" viewBox="0 0 28 28" fill="none" xmlns="http://www.w3.org/2000/svg">
<path d="M12.6295 3.74109H3.58432C2.89892 3.74109 2.24159 4.01336 1.75693 4.49802C1.27228 4.98267 1 5.64001 1 6.32541V24.4157C1 25.1011 1.27228 25.7584 1.75693 26.2431C2.24159 26.7277 2.89892 27 3.58432 27H21.6746C22.36 27 23.0173 26.7277 23.502 26.2431C23.9866 25.7584 24.2589 25.1011 24.2589 24.4157V15.3705" stroke="#F6AE2D" stroke-width="2" stroke-linecap="round" stroke-linejoin="round"/>
<path d="M22.3211 1.80285C22.8352 1.28879 23.5324 1 24.2594 1C24.9863 1 25.6835 1.28879 26.1976 1.80285C26.7117 2.3169 27.0004 3.01411 27.0004 3.74109C27.0004 4.46807 26.7117 5.16528 26.1976 5.67933L13.9221 17.9549L8.75342 19.247L10.0456 14.0784L22.3211 1.80285Z" stroke="#F6AE2D" stroke-width="2" stroke-linecap="round" stroke-linejoin="round"/>
</svg>
