<svg width="18" height="18" viewBox="0 0 18 18" fill="none" xmlns="http://www.w3.org/2000/svg">
<path d="M16.246 12.216L10.7327 3.07263C10.5097 2.72387 10.2026 2.43685 9.83952 2.23804C9.47647 2.03922 9.06921 1.93501 8.65528 1.93501C8.24136 1.93501 7.83409 2.03922 7.47104 2.23804C7.10799 2.43685 6.80083 2.72387 6.57789 3.07263L1.06455 12.216C0.86979 12.5407 0.763933 12.9109 0.757624 13.2894C0.751315 13.668 0.844776 14.0415 1.02861 14.3725C1.24115 14.745 1.54879 15.0544 1.92009 15.2691C2.29139 15.4838 2.71304 15.5961 3.14194 15.5945H14.1686C14.5947 15.599 15.0145 15.4911 15.3855 15.2816C15.7565 15.0721 16.0658 14.7684 16.282 14.4012C16.4712 14.0668 16.5676 13.6879 16.5613 13.3037C16.555 12.9195 16.4461 12.544 16.246 12.216V12.216ZM15.024 13.6896C14.9376 13.8381 14.8123 13.9601 14.6615 14.0425C14.5107 14.1249 14.3403 14.1644 14.1686 14.1568H3.14194C2.9703 14.1644 2.79986 14.1249 2.64909 14.0425C2.49831 13.9601 2.37294 13.8381 2.28654 13.6896C2.22345 13.5803 2.19024 13.4564 2.19024 13.3302C2.19024 13.204 2.22345 13.08 2.28654 12.9708L7.80708 3.82021C7.90628 3.68917 8.03449 3.5829 8.18165 3.50973C8.32882 3.43656 8.49093 3.39848 8.65528 3.39848C8.81963 3.39848 8.98175 3.43656 9.12891 3.50973C9.27608 3.5829 9.40429 3.68917 9.50349 3.82021L15.0168 12.9636C15.0824 13.0731 15.1176 13.198 15.1188 13.3256C15.1201 13.4532 15.0874 13.5788 15.024 13.6896V13.6896Z" fill="#F6AE2D"/>
<path d="M8.6551 12.7192C9.05209 12.7192 9.37392 12.3974 9.37392 12.0004C9.37392 11.6034 9.05209 11.2816 8.6551 11.2816C8.25811 11.2816 7.93628 11.6034 7.93628 12.0004C7.93628 12.3974 8.25811 12.7192 8.6551 12.7192Z" fill="#F6AE2D"/>
<path d="M8.6551 6.24982C8.46446 6.24982 8.28162 6.32555 8.14682 6.46035C8.01201 6.59516 7.93628 6.77799 7.93628 6.96864V9.84391C7.93628 10.0346 8.01201 10.2174 8.14682 10.3522C8.28162 10.487 8.46446 10.5627 8.6551 10.5627C8.84574 10.5627 9.02858 10.487 9.16338 10.3522C9.29819 10.2174 9.37392 10.0346 9.37392 9.84391V6.96864C9.37392 6.77799 9.29819 6.59516 9.16338 6.46035C9.02858 6.32555 8.84574 6.24982 8.6551 6.24982Z" fill="#F6AE2D"/>
</svg>
