<svg width="16" height="17" viewBox="0 0 16 17" fill="none" xmlns="http://www.w3.org/2000/svg">
<path fill-rule="evenodd" clip-rule="evenodd" d="M12.6008 2.90756C12.8926 2.62254 13.3466 2.60562 13.6575 2.85327L13.7321 2.92069L13.8097 3.00026C15.2069 4.47568 16 6.42663 16 8.5C16 12.9183 12.4183 16.5 8 16.5C3.58172 16.5 0 12.9183 0 8.5C0 6.51677 0.725664 4.64556 2.01906 3.18747L2.19894 2.99123L2.26787 2.92069C2.57664 2.60466 3.08314 2.59879 3.39916 2.90756C3.69087 3.19259 3.71832 3.64608 3.47796 3.96273L3.41228 4.03886L3.35203 4.10038C2.23358 5.28152 1.6 6.84 1.6 8.5C1.6 12.0346 4.46538 14.9 8 14.9C11.5346 14.9 14.4 12.0346 14.4 8.5C14.4 6.92736 13.8314 5.44585 12.8279 4.29765L12.6566 4.10941L12.5877 4.03886C12.2789 3.72284 12.2848 3.21634 12.6008 2.90756ZM8 0.5C8.44183 0.5 8.8 0.858172 8.8 1.3V7.7C8.8 8.14183 8.44183 8.5 8 8.5C7.55817 8.5 7.2 8.14183 7.2 7.7V1.3C7.2 0.858172 7.55817 0.5 8 0.5Z" fill="#E7E7E7"/>
</svg>
