<svg width="18" height="18" viewBox="0 0 18 18" fill="none" xmlns="http://www.w3.org/2000/svg">
<path d="M7.46088 1.93049C7.5088 1.4035 7.95064 1 8.47976 1H9.52024C10.0494 1 10.4912 1.4035 10.5391 1.93049C10.5785 2.36314 10.8898 2.71634 11.2966 2.8688C11.4012 2.90799 11.5046 2.94979 11.6066 2.9941C12.009 3.16903 12.4825 3.1355 12.8196 2.85454C13.2362 2.50736 13.8489 2.53515 14.2323 2.91863L14.9667 3.65298C15.3323 4.01861 15.3588 4.6027 15.0278 4.99994C14.7521 5.33079 14.7264 5.79796 14.9118 6.18673C14.992 6.35509 15.0653 6.52741 15.1312 6.70333C15.2837 7.11014 15.6369 7.42152 16.0695 7.46088C16.5965 7.5088 17 7.95064 17 8.47976V9.52024C17 10.0494 16.5965 10.4912 16.0695 10.5391C15.6369 10.5785 15.2837 10.8898 15.1312 11.2966C15.072 11.4546 15.0069 11.6096 14.9362 11.7614C14.7642 12.1304 14.7921 12.571 15.0526 12.8837C15.3696 13.264 15.3442 13.8233 14.9942 14.1734L14.1734 14.9942C13.8233 15.3442 13.264 15.3696 12.8837 15.0526C12.571 14.7921 12.1304 14.7642 11.7614 14.9362C11.6096 15.0069 11.4546 15.072 11.2966 15.1312C10.8898 15.2837 10.5785 15.6369 10.5391 16.0695C10.4912 16.5965 10.0494 17 9.52024 17H8.47976C7.95064 17 7.5088 16.5965 7.46088 16.0695C7.42152 15.6369 7.11014 15.2837 6.70334 15.1312C6.52742 15.0653 6.3551 14.992 6.18674 14.9118C5.79797 14.7264 5.3308 14.7521 4.99994 15.0278C4.6027 15.3588 4.0186 15.3323 3.65298 14.9667L2.91863 14.2323C2.53514 13.8489 2.50736 13.2362 2.85454 12.8196C3.13551 12.4825 3.16903 12.009 2.9941 11.6066C2.94979 11.5046 2.908 11.4013 2.8688 11.2966C2.71635 10.8898 2.36314 10.5785 1.93049 10.5391C1.4035 10.4912 1 10.0494 1 9.52024V8.47976C1 7.95064 1.4035 7.5088 1.93049 7.46088C2.36314 7.42152 2.71635 7.11014 2.86881 6.70334C2.91488 6.5804 2.96454 6.45922 3.01767 6.33991C3.20568 5.91773 3.17443 5.41806 2.87857 5.06302C2.51778 4.63006 2.54666 3.99343 2.94516 3.59492L3.59491 2.94517C3.99342 2.54666 4.63006 2.51778 5.06301 2.87858C5.41805 3.17444 5.91772 3.20568 6.3399 3.01767C6.45921 2.96454 6.58039 2.91488 6.70333 2.86881C7.11014 2.71635 7.42152 2.36314 7.46088 1.93049V1.93049Z" stroke="#E7E7E7" stroke-width="1.4" stroke-linecap="round" stroke-linejoin="round"/>
<path d="M11.4001 9.00001C11.4001 10.3255 10.3256 11.4 9.0001 11.4C7.67458 11.4 6.6001 10.3255 6.6001 9.00001C6.6001 7.67449 7.67458 6.60001 9.0001 6.60001C10.3256 6.60001 11.4001 7.67449 11.4001 9.00001Z" stroke="#E7E7E7" stroke-width="1.4" stroke-linecap="round" stroke-linejoin="round"/>
</svg>
