<svg width="36" height="36" viewBox="0 0 36 36" fill="none" xmlns="http://www.w3.org/2000/svg">
<path opacity="0.4" d="M18 33.018C26.2845 33.018 33 26.3025 33 18.018C33 9.73351 26.2845 3.01801 18 3.01801C9.7155 3.01801 3 9.73351 3 18.018C3 26.3025 9.7155 33.018 18 33.018Z" fill="#F7F7F7"/>
<path d="M18 10.4115C14.895 10.4115 12.375 12.9315 12.375 16.0365C12.375 19.0815 14.76 21.5565 17.925 21.6465H18.195C19.6511 21.5986 21.0315 20.9866 22.0447 19.9398C23.058 18.893 23.6246 17.4934 23.625 16.0365C23.625 12.9315 21.105 10.4115 18 10.4115ZM28.1685 29.037C25.4002 31.5957 21.7682 33.0153 17.9985 33.012C14.0685 33.012 10.4985 31.497 7.82849 29.037C8.18849 27.672 9.16349 26.427 10.5885 25.467C14.6835 22.737 21.3435 22.737 25.4085 25.467C26.8485 26.427 27.8085 27.672 28.1685 29.037Z" fill="#F7F7F7"/>
</svg>
