<svg width="241" height="44" viewBox="0 0 241 44" fill="none" xmlns="http://www.w3.org/2000/svg">
<path d="M0.64 31.792V28.672H15.472C16.88 28.672 17.584 27.984 17.584 26.608V22.96C17.584 21.744 17.04 21.024 15.952 20.8L6.208 18.832C2.496 18.096 0.64 15.6 0.64 11.344V8.704C0.64 3.488 3.248 0.879997 8.464 0.879997H19.648L22.48 3.088V6.208H8.608C7.2 6.208 6.496 6.896 6.496 8.272V11.488C6.496 12.704 7.04 13.424 8.128 13.648L17.872 15.568C21.584 16.336 23.44 18.832 23.44 23.056V26.176C23.44 31.392 20.832 34 15.616 34H3.472L0.64 31.792ZM29.6781 34V8.8H58.3821C63.4061 8.8 65.9181 11.328 65.9181 16.384V34H60.3021V15.904C60.3021 14.432 59.5661 13.696 58.0941 13.696H50.6061V34H44.9901V13.696H35.2941V34H29.6781ZM79.1838 34C74.1278 34 71.5998 31.504 71.5998 26.512C71.5998 21.52 74.1278 19.024 79.1838 19.024H86.5758V15.904C86.5758 14.432 85.8398 13.696 84.3678 13.696H74.1918V10.672L76.6878 8.8H84.6558C89.6798 8.8 92.1918 11.328 92.1918 16.384V34H79.1838ZM77.2158 26.896C77.2158 28.368 77.9518 29.104 79.4238 29.104H86.5758V23.392H79.4238C77.9518 23.392 77.2158 24.112 77.2158 25.552V26.896ZM99.0018 34V11.92C100.154 9.84 102.362 8.8 105.626 8.8H110.666L113.21 10.672V13.696H106.922C105.834 13.696 105.066 13.968 104.618 14.512V34H99.0018ZM117.846 26.416V0.879997H123.462V8.8H132.054V13.696H123.462V26.896C123.462 28.368 124.198 29.104 125.67 29.104H132.534V32.128L129.99 34H125.43C120.374 34 117.846 31.472 117.846 26.416Z" fill="#F6AE2D"/>
<path d="M135.178 2.032L135.946 0.879997H141.034L149.242 28.672H150.154L158.362 0.879997H163.498L164.218 2.032L154.426 34H144.922L135.178 2.032ZM173.028 34C167.972 34 165.444 31.504 165.444 26.512C165.444 21.52 167.972 19.024 173.028 19.024H180.42V15.904C180.42 14.432 179.684 13.696 178.212 13.696H168.036V10.672L170.532 8.8H178.5C183.524 8.8 186.036 11.328 186.036 16.384V34H173.028ZM171.06 26.896C171.06 28.368 171.796 29.104 173.268 29.104H180.42V23.392H173.268C171.796 23.392 171.06 24.112 171.06 25.552V26.896ZM192.51 26.416V16.384C192.51 11.328 195.038 8.8 200.094 8.8H213.918V36.016C213.918 41.072 211.39 43.6 206.334 43.6H197.166L194.622 41.728V38.704H206.094C207.566 38.704 208.302 37.968 208.302 36.496V34H200.094C195.038 34 192.51 31.472 192.51 26.416ZM198.126 26.896C198.126 28.368 198.862 29.104 200.334 29.104H208.302V13.696H200.334C198.862 13.696 198.126 14.432 198.126 15.904V26.896ZM227.215 34C222.159 34 219.631 31.504 219.631 26.512C219.631 21.52 222.159 19.024 227.215 19.024H234.607V15.904C234.607 14.432 233.871 13.696 232.399 13.696H222.223V10.672L224.719 8.8H232.687C237.711 8.8 240.223 11.328 240.223 16.384V34H227.215ZM225.247 26.896C225.247 28.368 225.983 29.104 227.455 29.104H234.607V23.392H227.455C225.983 23.392 225.247 24.112 225.247 25.552V26.896Z" fill="#F7F7F7"/>
</svg>
